<svg id="Layer_1" data-name="Layer 1" xmlns="http://www.w3.org/2000/svg" viewBox="0 0 120 120"><defs><style>.cls-1,.cls-2{fill:#01844b;}.cls-2{stroke:#f1f2f2;stroke-miterlimit:10;stroke-width:9px;}.cls-3{fill:#fff;}</style></defs><circle class="cls-1" cx="60" cy="60" r="60"/><circle class="cls-2" cx="60" cy="60" r="48.16"/><path class="cls-3" d="M50.53,82.27,28.2,59.81a2.12,2.12,0,0,1,0-3l3-3a2.13,2.13,0,0,1,3,0L50.93,70.77a1.47,1.47,0,0,0,2,0L85.84,37.62a2.13,2.13,0,0,1,3,0l3,3a2.13,2.13,0,0,1,0,3L53.51,82.27A1.91,1.91,0,0,1,50.53,82.27Z"/></svg>