<svg id="Layer_1" data-name="Layer 1" xmlns="http://www.w3.org/2000/svg" viewBox="0 0 120 120"><defs><style>.cls-1{fill:#6d6c6b;}</style></defs><ellipse class="cls-1" cx="60.06" cy="20.31" rx="44.78" ry="15.59"/><path class="cls-1" d="M104.71,46.71c0,8.62-20,15.6-44.77,15.6s-44.78-7-44.78-15.6V31.29c0,8.61,20,15.59,44.78,15.59s44.77-7,44.77-15.59Z"/><path class="cls-1" d="M104.71,73.2c0,8.61-20,15.59-44.77,15.59s-44.78-7-44.78-15.59V57.78c0,8.61,20,15.59,44.78,15.59s44.77-7,44.77-15.59Z"/><path class="cls-1" d="M104.71,99.69c0,8.61-20,15.59-44.77,15.59s-44.78-7-44.78-15.59V84.26c0,8.62,20,15.6,44.78,15.6s44.77-7,44.77-15.6Z"/></svg>