<svg id="Layer_1" data-name="Layer 1" xmlns="http://www.w3.org/2000/svg" viewBox="0 0 120 120"><defs><style>.cls-1{fill:#fcb65f;}.cls-2{fill:#fcb660;stroke:#f1f2f2;stroke-miterlimit:10;stroke-width:9px;}.cls-3{fill:#fff;}</style></defs><circle class="cls-1" cx="60" cy="60" r="60"/><circle class="cls-2" cx="60" cy="60" r="48.16"/><path class="cls-3" d="M91.62,76.13,63.09,30a3.53,3.53,0,0,0-6.23,0L28.33,76.13C26.58,79,28.33,83,31.44,83H88.5C91.62,83,93.49,79,91.62,76.13ZM60,73a3.74,3.74,0,1,1,3.74-3.74A3.66,3.66,0,0,1,60,73ZM63.71,61.8a1.18,1.18,0,0,1-1.25,1.25h-5a1.17,1.17,0,0,1-1.24-1.25V45.61a1.17,1.17,0,0,1,1.24-1.25h5a1.18,1.18,0,0,1,1.25,1.25Z"/></svg>